PathFileType	4	(X/Y/Z)	C:/Users/beibeiliu/ov580/test_trc\sequence.33_training_dense_right.trc
DataRate	CameraRate	NumFrames	NumMarkers	Units	OrigDataRate	OrigDataStartFrame	OrigNumFrames
120	120	21	19	mm	120	85	169
Frame#	Time	ThumbCMC			ThumbMCP			ThumbIP			ThumbTip			IndexMCP			IndexPIP			IndexTip			MiddleMCP			MiddlePIP			MiddleTip			RingMCP			RingPIP			RingTip			PinkyMCP			PinkyPIP			PinkyTip			BackHand1			BackHand2			BackHand3	
		X0	Y0	Z0	X1	Y1	Z1	X2	Y2	Z2	X3	Y3	Z3	X4	Y4	Z4	X5	Y5	Z5	X6	Y6	Z6	X7	Y7	Z7	X8	Y8	Z8	X9	Y9	Z9	X10	Y10	Z10	X11	Y11	Z11	X12	Y12	Z12	X13	Y13	Z13	X14	Y14	Z14	X15	Y15	Z15	X16	Y16	Z16	X17	Y17	Z17	X18	Y18	Z18	
84	0.7	75.8884	23.9209	65.4215	80.7163	46.8934	44.1598	77.9275	63.8976	25.1612	66.4908	77.5542	15.8386	55.6787	33.6584	2.48175	54.6381	58.7794	-8.06075	61.078	83.7884	-6.67372	30.0868	25.2481	7.63478	22.7805	29.5009	-18.0582	13.0218	33.817	-39.4326	14.8135	31.7699	16.3051	3.10434	38.7997	1.08663	2.43783	42.2643	-19.4605	5.95364	41.9746	36.5197	1.63681	53.7837	18.3816	6.58732	63.5493	1.62117	25.1447	15.2126	55.9122	27.9095	8.26003	81.4352	46.337	5.90983	59.5182	
85	0.708333	76.0549	23.5882	63.781	85.566	44.7497	44.9818	81.973	58.9862	26.1423	80.3433	74.8377	11.4274	55.3398	34.9241	5.65231	57.1445	60.9278	-5.49243	62.7442	87.4824	2.97781	31.5617	25.1316	1.89166	23.7073	30.4363	-15.2276	16.3917	35.7007	-42.2473	11.2324	33.3053	16.8661	8.21933	37.7198	-0.933334	-1.40813	43.8529	-20.3983	5.51883	42.8045	31.3255	2.00272	52.3764	17.1759	5.59151	65.0614	-1.8256	26.1393	14.761	58.6761	29.9509	8.97073	84.295	47.9074	4.88897	63.4167	
86	0.716667	78.4585	23.2284	63.6623	90.2143	42.7994	47.1073	90.9796	55.9902	24.0399	90.371	70.1622	11.029	56.1524	38.671	3.72497	57.2538	61.946	-1.28599	60.2208	90.4943	13.15	30.3152	25.706	3.94263	24.5711	33.0862	-18.5193	19.7533	41.792	-43.2189	11.2773	32.5162	14.6355	8.07112	39.275	-5.61555	3.92276	47.9633	-25.2536	4.6584	40.7672	32.5358	0.139807	49.0807	15.0739	-3.31888	56.7585	-0.248622	25.3144	15.6815	56.4012	28.9211	5.95352	81.93	49.2428	4.09095	58.8954	
87	0.725	77.813	23.0254	67.3219	87.8064	41.1656	43.6533	92.4424	53.8312	23.8353	91.4802	66.6321	6.94185	53.6512	38.6238	4.81783	55.7566	62.7903	-0.516775	62.3033	87.701	11.2188	30.8127	27.2196	1.67974	28.0298	36.1252	-17.8292	18.6056	47.2403	-38.5223	12.2755	31.0242	15.4965	4.70449	43.8694	-4.05002	5.57145	59.5077	-19.8781	-0.844857	38.6186	35.699	-6.60788	45.4037	19.6971	-17.8013	51.8372	3.64064	23.6854	12.8635	59.2289	30.2192	8.03635	80.738	50.2311	5.36043	62.8395	
88	0.733333	77.4116	23.5305	69.3418	89.6949	41.2377	46.6138	89.6322	51.497	27.3558	88.378	63.8133	8.92754	52.1036	37.2137	6.22161	52.0967	65.2592	-2.5626	58.5285	89.8575	9.22067	26.662	30.0937	3.73701	24.1518	40.7924	-14.7845	20.1111	56.7959	-37.2907	14.6363	35.0628	13.801	10.9457	56.1054	-2.10393	16.4873	82.4114	-2.73021	0.109562	34.5969	37.1586	-13.2189	40.8503	22.6489	-24.9337	42.9747	6.29372	25.8084	14.3649	55.1518	31.5699	6.37603	78.9411	51.1679	4.52747	60.7745	
89	0.741667	75.1437	23.6706	64.1181	86.1615	40.7831	46.7561	90.2845	50.6575	24.5685	89.1677	61.4602	10.6363	53.9306	36.3287	5.37681	56.5266	58.7909	-6.17329	53.1337	88.8151	-0.672761	27.8048	33.0943	5.85388	25.8961	48.0402	-16.444	22.5831	68.6685	-34.1695	15.2193	42.6641	14.6961	15.3312	66.8977	8.68181	32.0573	85.8965	18.8233	-3.84608	35.7496	38.2195	-10.9908	39.2072	24.5419	-23.9385	39.565	12.1875	22.4856	13.7438	59.0211	27.4521	7.45588	80.3626	51.1012	3.99563	57.7134	
90	0.75	76.4615	23.8819	65.8584	86.1979	40.3818	43.0942	88.7813	49.9379	21.1138	91.398	61.5623	6.11729	55.8797	36.9835	2.45738	51.8804	59.7807	-6.89085	55.0907	86.4763	-1.9814	27.4841	34.4486	6.50626	26.2963	52.0743	-14.5534	21.722	72.2688	-29.1547	13.1936	46.1045	18.8203	21.889	74.9768	15.6024	36.8428	85.6641	35.1351	-2.24961	36.6789	37.6558	-15.0847	42.5109	24.883	-22.8278	44.0709	11.0483	23.6347	14.1292	53.9133	32.0607	5.96739	82.4626	51.449	3.81196	57.1491	
91	0.758333	72.3324	24.4091	65.7859	85.2636	40.5082	42.528	86.4283	51.0408	27.3465	91.5754	61.0609	8.41045	50.9317	41.0286	4.50959	53.2469	69.2067	-2.90695	54.6656	91.3049	11.1439	27.6907	37.8701	4.84899	24.4023	57.5218	-16.4344	21.2699	78.7902	-28.5427	13.5116	46.4375	15.9111	17.061	76.0986	13.8087	33.4613	85.43	29.9101	-5.11377	38.2791	39.0233	-14.629	45.2922	21.7122	-22.5768	48.1252	9.36669	21.5699	14.5173	53.3731	28.0636	6.18741	80.618	50.7831	5.8556	59.738	
92	0.766667	73.1972	26.8588	64.0723	79.7479	43.706	45.7806	87.5902	53.561	27.1097	86.6608	63.2459	9.58746	53.3021	45.606	6.14847	52.8313	75.1485	3.19824	52.6889	92.121	24.6455	27.8547	37.1475	4.11501	25.4988	55.244	-16.8173	16.3199	75.0538	-28.2077	12.8555	39.4937	14.645	8.46292	61.5777	2.4115	21.3694	87.8349	16.4445	-6.59232	38.0437	34.5573	-11.6166	43.1399	23.0555	-22.7905	49.4112	5.43675	21.3397	14.9378	54.9732	26.6831	6.28305	81.5439	49.9717	8.98308	59.5972	
93	0.775	72.1963	30.8901	65.6192	81.9547	49.9573	47.9591	84.7546	59.4242	24.586	90.014	71.0429	10.366	51.4835	48.9839	7.45621	50.7431	77.0606	5.00723	46.2314	94.7577	29.6611	30.4643	35.0891	4.56755	19.7479	51.0512	-18.9578	14.8475	68.392	-35.9968	11.1463	32.215	14.1586	3.5766	45.1261	-3.95428	5.15107	67.3803	-14.1043	-4.85941	36.1103	33.9166	-15.0935	41.0994	20.9967	-24.149	47.6321	3.83023	20.1485	15.3221	53.3349	32.2545	7.67583	81.0517	50.871	9.41939	55.7106	
94	0.783333	70.7761	37.3941	70.235	79.6066	56.8274	51.8299	83.9535	68.1719	27.7545	83.4879	79.8149	10.4302	46.577	53.9491	8.42008	42.212	82.2057	6.08627	43.0252	101.946	23.0075	28.5859	36.0884	3.23844	20.4628	47.4601	-19.4008	11.7566	58.5384	-40.1144	9.68694	29.1423	15.031	-0.0324547	36.0232	-3.57822	-7.21351	46.6448	-22.2952	-1.82306	34.2556	34.8559	-13.824	38.0661	19.3928	-27.3539	41.4505	1.82025	22.0077	17.5956	54.2945	29.4237	10.1598	76.232	54.8628	12.6551	59.8794	
95	0.791667	73.1351	42.0358	68.7319	80.7169	61.5616	52.3473	82.3217	74.3706	28.3352	79.7782	83.8831	15.0651	49.7363	55.9183	9.80647	40.4751	83.5553	4.99396	37.8898	105.396	17.955	25.7215	37.7142	7.38832	21.1724	46.6091	-16.4232	10.5265	53.5727	-36.8092	12.0373	31.0379	18.3285	1.91822	33.6848	-1.10865	-7.11783	36.0167	-20.5534	-3.9193	33.1795	35.7043	-18.5823	35.5528	22.3001	-29.3601	35.3886	9.57775	25.8237	17.7667	54.9905	31.5501	10.4649	77.7999	51.161	17.0749	57.494	
96	0.8	74.1971	43.2798	68.6805	74.6954	63.2897	50.7505	78.2195	76.2546	34.2963	76.9032	89.4414	17.0444	50.7371	57.9626	9.55871	44.1351	81.7291	2.97306	31.2008	103.735	11.3752	28.4793	39.4121	2.63326	18.3883	44.6673	-15.6529	13.428	50.1172	-35.3896	9.52067	30.2024	21.1429	-0.455957	30.1283	-2.77327	-4.11701	29.3366	-21.8376	-6.8609	29.8391	42.1017	-17.9321	31.6739	23.44	-30.042	26.0778	16.1602	28.0824	18.6102	57.1013	35.6331	10.6994	77.0848	55.1672	17.3287	61.6225	
97	0.808333	72.2621	46.5796	69.3842	71.2413	66.4757	53.9204	75.4567	83.368	37.7083	65.8289	96.3005	20.9004	47.1634	55.1661	9.01923	40.2885	79.1932	-0.40387	29.9144	102.525	3.16049	28.1023	37.1958	2.9923	21.516	42.6588	-15.4596	11.0653	46.7492	-38.489	7.67967	28.979	17.74	-2.24166	28.3704	2.12494	-9.85177	26.8995	-17.4416	-6.50252	30.2194	39.5077	-24.3737	30.7236	27.71	-36.8966	26.2915	15.8144	24.208	18.2863	55.4728	34.0788	9.03665	76.8336	54.775	19.0732	59.3728	
98	0.816667	69.6	49.6411	72.5874	67.5242	74.4039	58.2584	60.3469	89.0363	40.7863	49.2137	105.231	24.5574	45.5175	53.1614	8.05551	37.8016	73.0292	-6.98043	31.8189	99.3953	-11.8686	24.605	34.4826	4.97453	17.662	38.8032	-18.0616	12.1389	42.1174	-36.8935	7.02499	29.4898	21.2711	-2.44509	29.9881	1.68238	-10.1041	30.5716	-16.9456	-10.9645	30.2929	42.7635	-23.0364	34.9474	22.7438	-36.5284	36.1363	12.5078	26.49	19.1881	57.0572	32.6621	9.77435	80.6883	54.3003	22.1869	57.587	
99	0.825	65.5248	55.818	70.8963	56.6144	81.2163	58.1524	44.7346	96.6964	40.0654	26.6146	107.771	27.9237	48.4226	56.1294	8.40186	42.4716	70.7119	-9.47005	30.5703	92.6043	-22.7178	28.6373	36.7026	4.25021	19.9683	38.9884	-15.3372	13.6348	41.0876	-39.1664	7.63325	31.3605	17.5505	-4.60719	32.4405	-2.17621	-12.9997	35.7555	-19.9723	-12.9582	31.2115	37.1818	-25.9738	38.3537	24.5595	-35.6258	43.0745	8.19405	24.1109	21.2394	54.1901	31.5259	10.8901	79.2741	53.3265	26.4828	59.89	
100	0.833333	58.9647	61.9443	73.1097	46.9399	89.3901	58.273	29.6344	99.2755	44.4366	6.51562	95.4942	32.7083	46.2226	57.6684	8.34949	42.3431	71.7223	-13.3494	32.8423	84.3884	-26.984	28.9548	38.5835	5.93903	21.77	39.0008	-17.644	16.3466	40.6652	-39.1254	10.8983	31.2209	17.7244	1.21894	34.9698	-5.54674	-10.4413	43.4547	-25.8511	-7.01647	31.0034	34.536	-17.7665	38.9958	19.6627	-32.8776	48.7768	7.07901	29.7285	23.5095	54.8409	33.9932	13.5274	77.8397	54.8632	29.5758	60.0586	
101	0.841667	53.2139	71.2807	71.5979	32.2708	89.3186	56.772	12.3808	95.4793	39.545	-7.61294	88.0087	33.4685	49.4998	65.4299	8.07552	43.7949	74.4067	-11.1946	32.1898	85.2073	-31.3264	32.8386	41.2511	4.05167	28.3174	43.3034	-16.4383	20.2378	44.3111	-43.8115	17.4825	34.0522	13.935	4.86951	37.7513	-7.23211	-6.86094	48.5921	-24.7554	-0.72067	30.3882	31.76	-15.3234	39.3649	15.502	-27.8214	49.8081	2.8894	32.0464	24.2871	57.475	39.992	19.6243	79.6875	54.9091	35.8573	61.3388	
102	0.85	45.7118	73.4831	75.3461	23.3708	92.6356	58.3221	2.59474	90.8679	39.2784	-12.5491	75.6556	35.2656	47.9843	68.2242	12.6071	42.5511	75.8497	-9.268	32.6298	85.9422	-29.6208	37.1672	44.7702	7.46891	30.9734	45.6408	-19.0819	18.834	48.6124	-44.9857	20.3997	33.9306	16.149	9.9938	39.3487	-7.41589	-5.05166	51.4244	-22.3548	3.4635	27.5234	26.6388	-9.97148	34.3962	13.0971	-23.8394	45.739	2.68601	37.1911	27.889	52.582	43.6299	20.8468	81.1908	55.9348	41.9582	64.3218	
103	0.858333	43.473	80.3008	79.0674	19.3117	92.7688	59.0836	2.27353	87.265	41.0556	-13.9148	66.9114	30.8226	47.1911	71.492	11.3994	42.8196	83.227	-10.5272	32.8554	93.7076	-29.3237	38.3984	47.536	8.43382	33.3843	53.6582	-19.1286	18.9106	60.447	-40.1496	26.1528	36.9209	13.2436	13.3708	40.9255	-6.73047	-5.1122	54.2474	-17.8053	8.85855	23.3218	26.1229	-1.03054	28.6875	10.2909	-16.4278	39.7953	-2.03619	39.6067	28.8918	55.0445	47.4012	26.1105	81.532	59.5408	51.1377	67.258	
104	0.866667	40.4374	78.1761	81.3396	17.13	96.4643	58.4781	2.02506	87.5469	40.3268	-11.4208	71.1661	31.6289	50.7658	78.1213	16.7988	43.8948	87.7954	-8.75559	28.2195	93.8411	-25.8257	43.5679	54.8641	7.25409	31.3403	56.1529	-17.2678	8.63444	65.8187	-32.4604	28.5622	37.2992	14.8016	15.4053	46.7049	-7.76723	-8.36777	57.738	-10.9936	15.5773	22.9593	29.7859	2.66227	24.9613	10.1155	-13.5476	40.1297	-4.28717	43.2986	31.5296	59.8977	47.2311	27.7315	84.602	56.1912	51.1273	70.3222	
